<svg xmlns="http://www.w3.org/2000/svg" viewBox="0 0 100 100"><path fill="#fff" fill-rule="evenodd" d="M84.37 44.9 L84.58 46.59 L84.71 48.29 L84.75 50 L84.71 51.71 L84.58 53.41 L84.37 55.1 L84.08 56.78 L83.71 58.44 L83.25 60.09 L82.72 61.71 L82.1 63.3 L81.41 64.86 L80.65 66.38 L79.81 67.87 L78.89 69.31 L77.91 70.7 L76.86 72.05 L75.75 73.34 L74.57 74.57 L73.34 75.75 L72.05 76.86 L70.7 77.91 L69.31 78.89 L67.87 79.81 L66.38 80.65 L64.86 81.41 L63.3 82.1 L61.71 82.72 L60.09 83.25 L58.44 83.71 L56.78 84.08 L55.1 84.37 L53.41 84.58 L51.71 84.71 L50 84.75 L48.29 84.71 L46.59 84.58 L44.9 84.37 L43.22 84.08 L41.56 83.71 L39.91 83.25 L38.29 82.72 L36.7 82.1 L35.14 81.41 L33.62 80.65 L32.13 79.81 L30.69 78.89 L29.3 77.91 L27.95 76.86 L26.66 75.75 L25.43 74.57 L24.25 73.34 L23.14 72.05 L22.09 70.7 L21.11 69.31 L20.19 67.87 L19.35 66.38 L18.59 64.86 L17.9 63.3 L17.28 61.71 L16.75 60.09 L16.29 58.44 L15.92 56.78 L15.63 55.1 L15.42 53.41 L15.29 51.71 L15.25 50 L15.29 48.29 L15.42 46.59 L15.63 44.9 L15.92 43.22 L16.29 41.56 L16.75 39.91 L17.28 38.29 L17.9 36.7 L18.59 35.14 L19.35 33.62 L20.19 32.13 L21.11 30.69 L22.09 29.3 L23.14 27.95 L24.25 26.66 L25.43 25.43 L26.66 24.25 L27.95 23.14 L29.3 22.09 L30.69 21.11 L32.13 20.19 L33.62 19.35 L35.14 18.59 L36.7 17.9 L38.29 17.28 L39.91 16.75 L41.56 16.29 L43.22 15.92 L44.9 15.63 L46.59 15.42 L48.29 15.29 L50 15.25 L51.71 15.29 L53.41 15.42 L55.1 15.63 L56.78 15.92 L58.44 16.29 L60.09 16.75 L61.71 17.28 L63.3 17.9 L64.86 18.59 L66.38 19.35 L67.87 20.19 L69.31 21.11 L70.7 22.09 L72.05 23.14 L73.34 24.25 L74.57 25.43 L75.75 26.66 L76.86 27.95 L77.91 29.3 L78.89 30.69 L79.81 32.13 L80.65 33.62 L81.41 35.14 L82.1 36.7 L82.72 38.29 L83.25 39.91 L83.71 41.56 L84.08 43.22ZM76.73 55.32 L76.96 54 L77.02 53.5 L58.98 53.5 L58.99 53.56 L59 54 L58.99 54.44 L58.96 54.88 L58.9 55.32 L58.83 55.76 L58.73 56.19 L58.61 56.61 L58.47 57.03 L58.31 57.44 L58.14 57.85 L57.94 58.24 L57.72 58.63 L57.48 59 L57.23 59.36 L56.96 59.71 L56.67 60.04 L56.36 60.36 L56.04 60.67 L55.71 60.96 L55.36 61.23 L55 61.48 L54.63 61.72 L54.24 61.94 L53.85 62.14 L53.5 62.29 L53.5 77.02 L54 76.96 L55.32 76.73 L56.62 76.43 L57.91 76.08 L59.18 75.66 L60.43 75.18 L61.65 74.63 L62.85 74.03 L64.01 73.37 L65.14 72.66 L66.23 71.89 L67.29 71.06 L68.3 70.19 L69.27 69.27 L70.19 68.3 L71.06 67.29 L71.89 66.23 L72.66 65.14 L73.37 64.01 L74.03 62.85 L74.63 61.65 L75.18 60.43 L75.66 59.18 L76.08 57.91 L76.43 56.62ZM46 76.96 L46.5 77.02 L46.5 62.29 L46.15 62.14 L45.76 61.94 L45.37 61.72 L45 61.48 L44.64 61.23 L44.29 60.96 L43.96 60.67 L43.64 60.36 L43.33 60.04 L43.04 59.71 L42.77 59.36 L42.52 59 L42.28 58.63 L42.06 58.24 L41.86 57.85 L41.69 57.44 L41.53 57.03 L41.39 56.61 L41.27 56.19 L41.17 55.76 L41.1 55.32 L41.04 54.88 L41.01 54.44 L41 54 L41.01 53.56 L41.02 53.5 L22.98 53.5 L23.04 54 L23.27 55.32 L23.57 56.62 L23.92 57.91 L24.34 59.18 L24.82 60.43 L25.37 61.65 L25.97 62.85 L26.63 64.01 L27.34 65.14 L28.11 66.23 L28.94 67.29 L29.81 68.3 L30.73 69.27 L31.7 70.19 L32.71 71.06 L33.77 71.89 L34.86 72.66 L35.99 73.37 L37.15 74.03 L38.35 74.63 L39.57 75.18 L40.82 75.66 L42.09 76.08 L43.38 76.43 L44.68 76.73ZM23.27 44.68 L23.04 46 L22.98 46.5 L45.03 46.5 L45.37 46.28 L45.76 46.06 L46.15 45.86 L46.56 45.69 L46.97 45.53 L47.39 45.39 L47.81 45.27 L48.24 45.17 L48.68 45.1 L49.12 45.04 L49.56 45.01 L50 45 L50.44 45.01 L50.88 45.04 L51.32 45.1 L51.76 45.17 L52.19 45.27 L52.61 45.39 L53.03 45.53 L53.44 45.69 L53.85 45.86 L54.24 46.06 L54.63 46.28 L54.97 46.5 L77.02 46.5 L76.96 46 L76.73 44.68 L76.43 43.38 L76.08 42.09 L75.66 40.82 L75.18 39.57 L74.63 38.35 L74.03 37.15 L73.37 35.99 L72.66 34.86 L71.89 33.77 L71.06 32.71 L70.19 31.7 L69.27 30.73 L68.3 29.81 L67.29 28.94 L66.23 28.11 L65.14 27.34 L64.01 26.63 L62.85 25.97 L61.65 25.37 L60.43 24.82 L59.18 24.34 L57.91 23.92 L56.62 23.57 L55.32 23.27 L54 23.04 L52.67 22.88 L51.34 22.78 L50 22.75 L48.66 22.78 L47.33 22.88 L46 23.04 L44.68 23.27 L43.38 23.57 L42.09 23.92 L40.82 24.34 L39.57 24.82 L38.35 25.37 L37.15 25.97 L35.99 26.63 L34.86 27.34 L33.77 28.11 L32.71 28.94 L31.7 29.81 L30.73 30.73 L29.81 31.7 L28.94 32.71 L28.11 33.77 L27.34 34.86 L26.63 35.99 L25.97 37.15 L25.37 38.35 L24.82 39.57 L24.34 40.82 L23.92 42.09 L23.57 43.38Z"/></svg>
